<svg width="86" height="89" x="${x}" y="${y}" viewBox="0 0 86 89" fill="none" xmlns="http://www.w3.org/2000/svg">
<path d="M5.29236 12.7928L17.7593 6.68188V72.5667L5.29236 84.0618V12.7928Z" fill="#B4BB91"/>
<path d="M18.2575 73.1196L59.1329 72.748L51.7011 82.4095L29.0338 86.291L6.23962 85.1554L18.2575 73.1196Z" fill="#778561"/>
<path d="M17.4916 3.73633L3.58557 12.7099V83.5792C3.58557 84.7542 4.98563 85.3652 5.84705 84.566L19.6296 71.7801" stroke="black" stroke-width="6.42844" stroke-linecap="round"/>
<mask id="path-4-inside-1_355_26707" fill="white">
<path fill-rule="evenodd" clip-rule="evenodd" d="M40.704 0.518066H17.0439V76.2221H40.704H42.5805H47.8013C68.7064 76.2221 85.6533 59.2752 85.6533 38.3701C85.6533 17.465 68.7063 0.518066 47.8013 0.518066H42.5805H40.704Z"/>
</mask>
<path fill-rule="evenodd" clip-rule="evenodd" d="M40.704 0.518066H17.0439V76.2221H40.704H42.5805H47.8013C68.7064 76.2221 85.6533 59.2752 85.6533 38.3701C85.6533 17.465 68.7063 0.518066 47.8013 0.518066H42.5805H40.704Z" fill="#F3F6F1"/>
<path d="M17.0439 0.518066V-6.57919H9.94669V0.518066H17.0439ZM17.0439 76.2221H9.94669V83.3194H17.0439V76.2221ZM17.0439 7.61532H40.704V-6.57919H17.0439V7.61532ZM24.1412 76.2221V0.518066H9.94669V76.2221H24.1412ZM40.704 69.1249H17.0439V83.3194H40.704V69.1249ZM42.5805 69.1249H40.704V83.3194H42.5805V69.1249ZM47.8013 69.1249H42.5805V83.3194H47.8013V69.1249ZM78.556 38.3701C78.556 55.3555 64.7867 69.1249 47.8013 69.1249V83.3194C72.6261 83.3194 92.7505 63.1949 92.7505 38.3701H78.556ZM47.8013 7.61532C64.7866 7.61532 78.556 21.3847 78.556 38.3701H92.7505C92.7505 13.5453 72.626 -6.57919 47.8013 -6.57919V7.61532ZM42.5805 7.61532H47.8013V-6.57919H42.5805V7.61532ZM40.704 7.61532H42.5805V-6.57919H40.704V7.61532Z" fill="black" mask="url(#path-4-inside-1_355_26707)"/>
<path d="M68.9215 36.0135C68.9215 36.0135 65.7369 49.4738 51.4231 49.4738C37.1093 49.4738 32.5787 37.3596 32.5787 36.0135" stroke="black" stroke-width="7.69161" stroke-linecap="round" stroke-linejoin="round"/>
<path d="M0.348633 85.4946C0.348633 85.4946 29.4856 85.8309 34.809 85.698C44.8337 85.4477 51.2872 84.402 57.5269 78.9724C62.8129 74.3727 75.1342 59.6836 75.1342 59.6836" stroke="black" stroke-width="6.16482"/>
</svg>
